<svg
    xmlns="http://www.w3.org/2000/svg"
    viewBox="0 0 587 128"
    id="vector">
    <path
        id="path"
        d="M 472.6 76.8 C 472.3 77.1 472.1 77.5 471.8 77.8 C 471.6 78.2 471.5 78.6 471.3 79 C 471.1 79.6 471.2 80.7 471.4 81.3 C 471.6 82 472 82.7 472.6 83.2 C 473.2 83.7 474 84.2 474.7 84.3 C 475.2 84.4 475.7 84.4 476.2 84.4 C 478.5 84.3 480.4 82.4 480.4 80 C 480.4 78.7 479.8 77.7 479 76.9 C 478.9 76.8 478.8 76.7 478.7 76.6 C 476.9 75 474.1 75 472.6 76.8 Z"
        fill="#3498db"/>
    <path
        id="path_1"
        d="M 580 94.1 C 579.7 94.7 579.3 95.3 578.9 95.8 C 578.8 95.9 578.5 96.4 578.4 96.4 C 578.2 96.7 577.9 97 577.6 97.3 C 576.2 98.8 575.7 99.2 574.3 100.2 C 571.4 102.2 569.6 103 566 104 C 565.6 104.1 565.2 104.2 564.8 104.3 C 564.7 104.3 564.3 104.4 564.1 104.4 C 563.4 104.5 562.7 104.6 562.1 104.6 C 561.3 104.7 560.6 104.7 559.8 104.7 C 559.4 104.7 559 104.7 558.6 104.7 C 558.4 104.7 558.2 104.7 557.9 104.7 L 558 104.7 C 556.1 104.5 554.7 104.2 553.5 103.7 C 554.1 102.4 554.6 101.1 555.1 99.7 C 557.9 92.3 559.6 80.4 550.6 76.5 C 540.7 72.2 536 85.3 536.7 93 C 537.2 97.8 539 102.3 542.1 105.8 C 541.8 106.2 541.4 106.5 541.1 106.9 C 539.7 108.3 538.4 109.5 536.6 110.5 C 536.8 110.4 536.4 110.5 536.1 110.6 C 536 110.6 535.9 110.6 535.7 110.7 C 535.7 110.6 535.2 110.6 535.4 110.7 L 535.4 110.7 C 535.4 110.7 535.4 110.7 535.3 110.7 C 535.3 110.6 535.2 110.6 535 110.4 C 533.9 109.4 533.7 107 533.7 105.3 C 533.5 100.1 534.4 95 533.3 89.9 C 532.7 86.9 530.8 83.1 527.8 81.8 C 524.8 80.4 521.9 81.4 519.6 83.6 C 517.5 85.5 515.9 88.2 514.7 91.1 C 513.3 87.6 510.6 85.1 506 85.9 C 502.8 86.5 500.4 89.5 498.8 92 C 498.2 92.9 497.6 93.8 497.3 94.8 C 495.3 91.8 490.4 92.7 489.6 96.2 C 488.9 98.8 488.9 101.5 488.8 104.2 C 488.8 105.6 488.7 107.1 488.7 108.5 C 488.7 109.3 488.6 110.1 488.6 110.9 C 488.6 111.2 488.6 111.5 488.5 111.8 C 488.5 111.8 488.4 112.5 488.4 112.6 C 488.2 114 488 115.3 487.6 116.7 C 487.5 116.9 487.5 117.1 487.4 117.3 C 487.5 117.1 487.2 117.8 487.2 117.9 C 487.1 118.1 486.6 118.9 486.5 119.1 C 486.3 119.3 486 119.5 485.9 119.6 C 485.8 119.6 485.5 119.8 485.3 119.8 L 485.2 119.8 C 485.2 119.8 485.2 119.8 485.1 119.8 C 484.7 119.8 484.4 119.8 484 119.8 C 485 119.8 483 119.4 483.1 119.6 C 482.8 119.4 482.5 119.2 482.4 119.2 C 482 118.8 481.5 118.3 481.6 118.4 C 481.2 117.9 480.9 117.4 480.6 117 C 480.6 116.9 480.4 116.5 480.3 116.4 C 480.2 116.2 480.1 115.9 480 115.6 C 479.5 114.2 479.1 112.8 478.8 111.4 C 478.8 111.3 478.8 111.3 478.8 111.3 C 478.8 111.2 478.8 111.1 478.7 110.9 C 478.6 110.5 478.6 110 478.5 109.6 C 478.4 108.7 478.3 107.9 478.3 107 C 478.1 103.8 478.2 100.6 478.5 97.4 C 478.5 97.4 478.5 97.4 478.5 97.3 C 478.8 95.3 479.1 93.2 479.4 91.2 C 479.8 88.9 478.6 86.7 476.2 86.1 C 474 85.5 471.6 87 471.1 89.3 C 470.5 91.8 470.1 94.5 469.9 97.1 C 469.2 101.2 468.5 105.2 467.3 109.3 C 466.7 111.2 466.4 111.9 465.8 113.4 C 465.5 114.1 465.1 114.8 464.7 115.5 C 464.5 115.8 464.3 116.2 464.1 116.5 C 464 116.6 463.9 116.7 463.9 116.8 C 463.8 116.9 463.7 117 463.6 117.1 C 463.2 117.6 462.8 118 462.3 118.5 C 462.5 118.3 461.3 119.2 461 119.3 C 461 119.3 461 119.3 460.9 119.3 L 460.8 119.3 C 460.5 119.4 460.2 119.5 459.8 119.6 L 459.8 119.6 C 459.8 119.6 459.7 119.6 459.6 119.6 C 459.2 119.6 458.8 119.6 458.4 119.6 C 459 119.6 457.9 119.5 457.8 119.5 C 457.4 119.4 457 119.3 456.5 119.2 C 456.2 119.1 455.7 118.9 455.1 118.4 C 455.3 118.5 454.5 117.9 454.5 117.9 C 454.2 117.6 454 117.4 453.7 117.1 C 454.1 117.5 453.3 116.5 453.3 116.5 C 453 116 452.7 115.5 452.4 115.1 C 451 112.6 450.3 108.1 449.9 105.1 C 449.4 100.9 449.1 96.8 449 92.6 C 448.9 87.1 449.5 81.6 450.1 76.1 C 457.7 74.4 465.3 72.8 473.1 72.3 C 475.9 72.1 477.3 69.8 477.1 67.6 C 477.1 65.4 475.7 63.3 472.9 63.4 C 465.5 63.8 458.2 65.3 451 66.9 C 451.1 65.5 451.2 64.2 451.3 63.2 C 451.6 60.7 451.3 58.7 450.8 56.2 C 450.3 53.9 447.5 52.7 445.5 53.4 C 443.1 54.2 442 56.5 442.5 58.7 C 442.6 59.3 442.7 60 442.7 60.5 L 442.7 60.5 C 442.7 60.5 442.9 60.6 442.9 60.7 C 442.9 60.8 443 60.9 443 60.9 C 443 61 443 61 443 61.1 C 442.7 63.6 442.6 66.2 442.4 68.8 C 433.1 70.9 423.8 72.8 414.2 72.5 C 411.4 72.4 410 74.6 410.2 76.8 C 410.2 79 411.6 81.3 414.4 81.4 C 423.6 81.7 432.5 80 441.4 78 C 441 81.9 440.6 85.8 440.5 89.7 C 440.3 94.2 440.7 98.9 441.1 103.4 C 441.5 107.6 442.1 111.8 443.4 115.8 C 444.8 120 447.2 123.4 450.7 125.9 C 454 128.1 458.4 128.6 462.2 127.7 C 466.6 126.7 469.6 123.4 471.9 119.4 C 473.2 122.4 475.1 125 478 126.7 C 481.3 128.7 485.7 128.6 489.1 127 C 490.4 126.4 491.3 125.6 492.2 124.5 C 494.7 125.9 499 124.7 498.9 120.8 C 498.9 120.2 498.9 119.6 499 119.1 C 499 119.1 499.1 118.1 499.1 117.9 C 499.2 117.2 499.3 116.5 499.4 115.9 C 499.9 112.8 500.6 109.7 501.3 106.6 C 501.7 105.1 502.2 103.5 502.7 102 C 502.8 101.7 502.9 101.4 503 101.2 C 503 101.1 503.1 101 503.1 100.9 C 503.1 100.8 503.2 100.7 503.2 100.6 C 503.5 99.8 503.9 99.1 504.2 98.4 C 504.5 97.8 504.8 97.2 505.1 96.7 C 505.2 96.5 506 95.4 506 95.3 C 506.2 95.1 506.4 94.8 506.6 94.6 C 506.7 95 506.8 95.4 506.9 95.8 C 506.9 95.9 507 96.3 507 96.5 C 507 96.8 507.1 97 507.1 97.3 C 507.3 98.9 507.4 100.6 507.5 102.2 C 507.7 107.3 507.3 112.5 506.9 117.6 C 506.8 119.9 509.1 121.8 511.3 121.8 C 513.8 121.7 515.3 119.8 515.5 117.5 C 515.6 117.1 515.6 116.7 515.7 116.4 C 515.9 115.2 516.1 114.2 516.4 113 C 517.1 110.1 517.8 107.3 518.6 104.4 C 519.1 103 519.5 101.4 520 100 C 520.3 99.2 520.5 98.6 520.8 97.8 C 520.9 97.5 521 97.3 521.1 97 C 521 97.2 521.4 96.1 521.5 96 C 522 94.7 522.6 93.5 523.2 92.2 C 523.5 91.6 523.8 91.1 524.1 90.7 C 524.2 90.6 524.2 90.5 524.3 90.4 C 524.3 90.5 524.4 90.7 524.5 90.9 C 525.3 93.1 525.2 95.6 525.1 97.9 C 524.9 103.1 524.3 108.3 526.6 113.2 C 528.9 117.8 533.8 119.9 538.7 118.1 C 542.6 116.7 545.8 113.7 548.5 110.6 C 561.7 116.8 580.1 110.9 587 98.1 C 590.1 93.4 582.6 89.3 580 94.1 Z M 508.3 93.8 L 508.3 93.8 L 508.3 93.8 L 508.3 93.8 Z M 506.7 93.4 L 506.7 93.4 C 506.6 93.4 506.6 93.4 506.7 93.4 C 506.6 93.4 506.6 93.4 506.7 93.4 Z M 535.4 110.4 L 535.4 110.4 C 535.5 110.4 535.5 110.4 535.6 110.5 C 535.5 110.5 535.5 110.5 535.4 110.4 Z M 547.1 84.2 C 547 84.2 547 84.2 547.1 84.2 L 547.1 84.2 C 547 84.2 547.1 84.2 547.1 84.2 L 547.1 84.2 Z M 547.1 84.2 L 547.1 84.2 L 547.1 84.2 L 547.1 84.2 L 547.1 84.2 Z M 547.2 84.1 L 547.2 84.1 L 547.2 84.1 L 547.2 84.1 L 547.2 84.1 Z M 545.8 86.9 C 546.1 85.9 546 86 546.6 85.1 C 546.6 85.1 546.9 84.6 547 84.5 C 547.1 84.4 547.1 84.4 547.2 84.3 C 547.5 84.4 547.8 84.7 548.2 85.1 C 547.6 84.5 548.4 85.5 548.5 85.6 C 548.5 85.7 548.6 85.7 548.6 85.7 C 548.6 85.8 548.6 85.9 548.7 86.1 C 548.8 86.5 548.9 86.9 549 87.4 C 548.8 86.5 549 88 549 88 C 549.1 90.1 548.8 91.4 548.3 93.6 C 547.9 95.1 547.4 96.6 546.9 98 C 546.7 97.7 546.6 97.4 546.4 97.1 C 546.8 97.9 546.2 96.4 546.1 96.3 C 545.4 94.4 545.3 93.7 545.2 92 C 545 89.8 545.2 88.9 545.8 86.9 Z"
        fill="#3498db"/>
    <path
        id="path_2"
        d="M 105.3 1.5 C 84.5 1.5 67.7 18.3 67.7 39.1 C 67.7 59.9 84.5 76.7 105.3 76.7 C 126.1 76.7 142.9 59.9 142.9 39.1 C 142.8 18.3 126 1.5 105.3 1.5 Z M 109.4 46.5 L 96.8 53.5 L 96.8 39.5 L 96.8 25.5 L 109.4 32.5 L 121.9 39.5 L 109.4 46.5 Z"
        fill="#ffffff"/>
    <path
        id="path_3"
        d="M 336.2 1.5 C 315.4 1.5 298.6 18.3 298.6 39.1 C 298.6 59.9 315.4 76.7 336.2 76.7 C 357 76.7 373.8 59.9 373.8 39.1 C 373.7 18.3 356.9 1.5 336.2 1.5 Z M 333.3 51.9 L 323.6 51.9 L 323.6 24.9 L 333.3 24.9 L 333.3 51.9 Z M 348.7 51.9 L 339 51.9 L 339 24.9 L 348.7 24.9 L 348.7 51.9 Z"
        fill="#ffffff"/>
    <path
        id="path_4"
        d="M 51.7 8.3 C 56.9 12.7 59.6 19.6 59.6 28.9 C 59.6 38.2 56.9 44.9 51.5 49.2 C 46.1 53.4 37.9 55.7 26.8 55.7 L 16.9 55.7 L 16.9 76.6 L 0.1 76.6 L 0.1 1.8 L 26.5 1.8 C 38.1 1.7 46.5 3.9 51.7 8.3 Z M 39.4 37.8 C 41.4 35.6 42.4 32.3 42.4 28 C 42.4 23.7 41.1 20.6 38.5 18.8 C 35.9 17 31.8 16.1 26.3 16.1 L 16.7 16.1 L 16.7 41.3 L 28 41.3 C 33.6 41.1 37.5 40 39.4 37.8 Z"
        fill="#ffffff"/>
    <path
        id="path_5"
        d="M 204.9 8.3 C 210.1 12.7 212.8 19.6 212.8 28.9 C 212.8 38.2 210.1 44.9 204.7 49.2 C 199.3 53.4 191.1 55.7 180 55.7 L 170 55.7 L 170 76.6 L 153.3 76.6 L 153.3 1.8 L 179.7 1.8 C 191.3 1.7 199.7 3.9 204.9 8.3 Z M 192.6 37.8 C 194.6 35.6 195.6 32.3 195.6 28 C 195.6 23.7 194.2 20.6 191.7 18.8 C 189.1 17 185 16.1 179.5 16.1 L 170 16.1 L 170 41.3 L 181.2 41.3 C 186.8 41.1 190.7 40 192.6 37.8 Z"
        fill="#ffffff"/>
    <path
        id="path_6"
        d="M 262.1 61.7 C 270.3 61.7 277.1 58.4 282.3 52 L 293 63 C 284.5 72.6 274.5 77.4 263 77.4 C 251.5 77.4 242 73.7 234.5 66.5 C 227.1 59.3 223.3 50 223.3 38.9 C 223.3 27.8 227.1 18.5 234.7 11.1 C 242.3 3.7 251.6 0 262.6 0 C 274.9 0 285.2 4.6 293.4 14 L 283 25.7 C 277.7 19.1 271.1 15.9 263.3 15.9 C 257 15.9 251.6 17.9 247.2 22.1 C 242.8 26.3 240.5 31.8 240.5 38.7 C 240.5 45.7 242.6 51.2 246.8 55.5 C 251 59.6 256.1 61.7 262.1 61.7 Z"
        fill="#ffffff"/>
    <path
        id="path_7"
        d="M 438.7 64.8 C 438.7 64.4 438.7 64 438.7 63.7 L 428.9 49.7 C 438.4 46.2 443.2 38.5 443.2 26.4 C 443.2 17.7 440.7 11.3 435.8 7.5 C 430.9 3.5 422.6 1.6 410.9 1.6 L 382.5 1.6 L 382.5 76.4 L 399.2 76.4 L 399.2 52.6 L 410.8 52.6 L 422 68.7 C 427.8 68.1 433.4 67.1 438.9 65.8 C 438.7 65.5 438.7 65.2 438.7 64.8 Z M 422.9 35.3 C 420.9 37.1 416.9 38.1 411.2 38.1 L 399 38.1 L 399 15.9 L 411.5 15.9 C 416.8 15.9 420.6 16.7 422.7 18.1 C 424.8 19.6 425.9 22.3 425.9 26.4 C 426 30.5 425 33.5 422.9 35.3 Z"
        fill="#ffffff"/>
    <path
        id="path_8"
        d="M 472.1 59.9 L 472.1 29.6 L 507.7 76.5 L 524.4 76.5 L 524.4 1.7 L 507.7 1.7 L 507.7 49.9 L 471 1.7 L 455.4 1.7 L 455.4 62.2 C 461 61 466.2 60.3 471.5 60 C 471.7 59.9 471.9 59.9 472.1 59.9 Z"
        fill="#ffffff"/>
</svg>
